<svg width="326" height="54" viewBox="0 0 326 54" fill="none" xmlns="http://www.w3.org/2000/svg">
<path d="M97.2301 17.874L91.997 36.2367H87.8285L84.6152 23.6213L81.4201 36.2367H77.2703L72 17.874H76.8295L79.6207 29.3505L82.6503 17.874H86.6167L89.61 29.3322L92.3642 17.874H97.2301Z" fill="#7272DA"/>
<path d="M101.502 17.8739H105.854V36.2364H101.502V17.8739Z" fill="#7272DA"/>
<path d="M125.521 30.6543C125.521 34.0148 123.133 36.5487 118.175 36.5487C114.65 36.5487 112.189 35.3369 110.133 33.2618L112.483 29.9565L112.85 30.3424C113.695 31.2236 115.531 32.6928 118.377 32.6928C120.287 32.6928 121.132 31.8848 121.132 31.0951C121.132 30.122 119.516 29.7361 117.643 29.2957C114.723 28.5979 111.161 27.6614 110.996 23.4746V23.3095V23.1442V22.9789C111.088 19.9858 113.713 17.5435 117.955 17.5435C120.875 17.5435 123.409 18.4249 125.447 20.3898L122.986 23.6216L122.637 23.291C121.334 22.0975 119.497 21.3997 117.588 21.3997C116.229 21.3997 115.421 21.9139 115.421 22.7953C115.421 23.6031 116.945 23.9705 118.708 24.3928C121.701 25.1089 125.355 26.082 125.521 30.3054V30.4709V30.6543Z" fill="#7272DA"/>
<path d="M146.776 27.0552C146.776 30.691 144.664 33.8311 141.616 35.3186C140.404 35.9058 139.045 36.2364 137.594 36.2364H129.791V25.2005H134.142V32.013H137.668C140.367 31.9764 142.552 29.7728 142.552 27.0552C142.552 24.3191 140.33 22.0974 137.594 22.0974H129.791V17.8739H137.613C139.045 17.8739 140.422 18.2043 141.634 18.7919C144.682 20.2977 146.794 23.4194 146.776 27.0552Z" fill="#7272DA"/>
<path d="M170.067 27.0278C170.067 32.2794 165.826 36.5398 160.574 36.5398C155.322 36.5398 151.062 32.2794 151.062 27.0278C151.062 21.7759 155.322 17.5159 160.574 17.5159C165.826 17.5159 170.067 21.7576 170.067 27.0278ZM165.697 27.0093C165.697 24.1814 163.402 21.8861 160.574 21.8861C157.746 21.8861 155.451 24.1814 155.451 27.0093C155.451 29.8373 157.746 32.1326 160.574 32.1326C163.402 32.1326 165.697 29.8373 165.697 27.0093Z" fill="#7272DA"/>
<path d="M189.088 23.7866C189.088 27.0001 186.884 29.7177 182.918 29.7177H178.676V36.2364H174.324V17.8739H182.918C186.903 17.8739 189.088 20.5732 189.088 23.7866ZM184.662 23.7866C184.662 22.5563 183.781 21.7485 182.404 21.7485H178.676V25.8249H182.404C183.744 25.8249 184.644 25.0169 184.662 23.7866Z" fill="#7272DA"/>
<path d="M193.391 17.8739H197.743V36.2364H193.391V17.8739Z" fill="#7272DA"/>
<path d="M214.03 17.874H209.127L202.021 36.2367H206.961L211.588 23.0705L213.902 29.6811L216.197 36.2367H221.118L214.03 17.874Z" fill="#7272DA"/>
<path d="M211.582 36.2367L208.666 31.7216H214.474L211.582 36.2367Z" fill="#10334D"/>
<path d="M247.826 30.6543C247.826 34.0148 245.438 36.5487 240.481 36.5487C236.955 36.5487 234.494 35.3369 232.438 33.2618L234.788 29.9565L235.155 30.3424C236 31.2236 237.836 32.6928 240.683 32.6928C242.592 32.6928 243.437 31.8848 243.437 31.0951C243.437 30.122 241.821 29.7361 239.948 29.2957C237.029 28.5979 233.466 27.6614 233.301 23.4746V23.3095V23.1442V22.9789C233.393 19.9858 236.018 17.5435 240.26 17.5435C243.18 17.5435 245.714 18.4249 247.752 20.3898L245.292 23.6216L244.943 23.291C243.639 22.0975 241.803 21.3997 239.893 21.3997C238.534 21.3997 237.726 21.9139 237.726 22.7953C237.726 23.6031 239.25 23.9705 241.013 24.3928C244.006 25.1089 247.66 26.082 247.826 30.3054V30.4709V30.6543Z" fill="#7272DA"/>
<path d="M266.859 23.7866C266.859 27.0001 264.656 29.7177 260.689 29.7177H256.448V36.2364H252.096V17.8739H260.689C264.674 17.8739 266.859 20.5732 266.859 23.7866ZM262.434 23.7866C262.434 22.5563 261.552 21.7485 260.175 21.7485H256.448V25.8249H260.175C261.516 25.8249 262.416 25.0169 262.434 23.7866Z" fill="#7272DA"/>
<path d="M279.89 17.874H274.987L267.881 36.2367H272.82L277.447 23.0705L279.762 29.6811L282.056 36.2367H286.978L279.89 17.874Z" fill="#7272DA"/>
<path d="M277.442 36.2367L274.525 31.7216H280.333L277.442 36.2367Z" fill="#10334D"/>
<path d="M307.968 31.6918C306.352 34.5749 303.249 36.5398 299.686 36.5398C294.434 36.5398 290.174 32.2794 290.174 27.0278C290.174 21.7759 294.434 17.5159 299.686 17.5159C303.249 17.5159 306.333 19.4623 307.968 22.3452L304.02 24.2733C303.12 22.8411 301.504 21.8861 299.686 21.8861C296.859 21.8861 294.563 24.1814 294.563 27.0093C294.563 29.8373 296.859 32.1326 299.686 32.1326C301.504 32.1326 303.12 31.1776 304.02 29.7454L307.968 31.6918Z" fill="#7272DA"/>
<path d="M312.253 36.2364H325.254V32.3619H312.253V36.2364ZM312.253 29.075H325.254V25.2005H312.253V29.075ZM312.253 17.8739V21.7485H325.254V17.8739H312.253Z" fill="#7272DA"/>
<g clip-path="url(#clip0_8_35)">
<path fill-rule="evenodd" clip-rule="evenodd" d="M1.03845 49.8461V5.44427L11.4302 15.836C11.4255 15.9221 11.4231 16.0088 11.4231 16.0961C11.4231 18.677 13.5153 20.7692 16.0961 20.7692C18.677 20.7692 20.7692 18.677 20.7692 16.0961C20.7692 13.5153 18.677 11.4231 16.0961 11.4231C16.0089 11.4231 15.9221 11.4255 15.836 11.4302L5.44427 1.03845H49.8461C51.5668 1.03845 52.9615 2.43326 52.9615 4.15384V48.5558L42.5697 38.164C42.5745 38.0779 42.5769 37.9912 42.5769 37.9038C42.5769 35.3229 40.4847 33.2308 37.9038 33.2308C35.3229 33.2308 33.2308 35.3229 33.2308 37.9038C33.2308 40.4847 35.3229 42.5769 37.9038 42.5769C37.9911 42.5769 38.0779 42.5745 38.164 42.5697L48.5558 52.9615H4.15384C2.43326 52.9615 1.03845 51.5668 1.03845 49.8461ZM22.8681 35.3507C23.09 36.9122 22.6003 38.5556 21.3992 39.7568C19.3715 41.7845 16.0839 41.7845 14.0561 39.7568C12.0284 37.729 12.0284 34.4414 14.0561 32.4137C15.2573 31.2125 16.9006 30.7229 18.4622 30.9448L30.9448 18.4622C30.7229 16.9005 31.2125 15.2573 32.4137 14.0561C34.4414 12.0284 37.729 12.0284 39.7568 14.0561C41.7845 16.0838 41.7845 19.3715 39.7568 21.3992C38.5556 22.6003 36.9122 23.09 35.3507 22.8681L22.8681 35.3507Z" fill="#7272DA"/>
<path d="M1.03846 5.44428L1.4056 5.07713L0.519226 4.19074V5.44428H1.03846ZM11.4302 15.836L11.9486 15.8645L11.9614 15.6329L11.7973 15.4689L11.4302 15.836ZM15.836 11.4302L15.4688 11.7973L15.6329 11.9613L15.8645 11.9486L15.836 11.4302ZM5.44428 1.03846V0.519226H4.19074L5.07713 1.4056L5.44428 1.03846ZM52.9615 48.5558L52.5943 48.9229L53.4808 49.8093V48.5558H52.9615ZM42.5698 38.164L42.0514 38.1355L42.0386 38.3671L42.2027 38.5311L42.5698 38.164ZM38.164 42.5698L38.5312 42.2027L38.3671 42.0387L38.1355 42.0514L38.164 42.5698ZM48.5558 52.9615V53.4808H49.8093L48.9229 52.5943L48.5558 52.9615ZM22.8681 35.3507L22.5009 34.9835L22.3175 35.1669L22.3539 35.4237L22.8681 35.3507ZM18.4622 30.9448L18.3892 31.4588L18.646 31.4954L18.8294 31.312L18.4622 30.9448ZM30.9448 18.4622L31.312 18.8294L31.4954 18.646L31.4589 18.3892L30.9448 18.4622ZM35.3507 22.8681L35.4237 22.3539L35.1669 22.3175L34.9835 22.5009L35.3507 22.8681ZM0.519226 5.44428V49.8462H1.55769V5.44428H0.519226ZM11.7973 15.4689L1.4056 5.07713L0.671306 5.81142L11.063 16.2032L11.7973 15.4689ZM11.9423 16.0961C11.9423 16.0184 11.9445 15.9411 11.9486 15.8645L10.9117 15.8076C10.9065 15.9032 10.9038 15.9994 10.9038 16.0961H11.9423ZM16.0961 20.25C13.8021 20.25 11.9423 18.3902 11.9423 16.0961H10.9038C10.9038 18.9638 13.2285 21.2885 16.0961 21.2885V20.25ZM20.25 16.0961C20.25 18.3902 18.3903 20.25 16.0961 20.25V21.2885C18.9639 21.2885 21.2885 18.9638 21.2885 16.0961H20.25ZM16.0961 11.9423C18.3903 11.9423 20.25 13.8021 20.25 16.0961H21.2885C21.2885 13.2285 18.9639 10.9038 16.0961 10.9038V11.9423ZM15.8645 11.9486C15.9411 11.9445 16.0184 11.9423 16.0961 11.9423V10.9038C15.9994 10.9038 15.9032 10.9065 15.8076 10.9117L15.8645 11.9486ZM5.07713 1.4056L15.4688 11.7973L16.2032 11.063L5.81142 0.671306L5.07713 1.4056ZM49.8462 0.519226H5.44428V1.55769H49.8462V0.519226ZM53.4808 4.15384C53.4808 2.1465 51.8535 0.519226 49.8462 0.519226V1.55769C51.28 1.55769 52.4423 2.72003 52.4423 4.15384H53.4808ZM53.4808 48.5558V4.15384H52.4423V48.5558H53.4808ZM42.2027 38.5311L52.5943 48.9229L53.3287 48.1886L42.937 37.7968L42.2027 38.5311ZM42.0577 37.9038C42.0577 37.9816 42.0555 38.0589 42.0514 38.1355L43.0883 38.1924C43.0935 38.0968 43.0962 38.0006 43.0962 37.9038H42.0577ZM37.9038 33.75C40.1979 33.75 42.0577 35.6098 42.0577 37.9038H43.0962C43.0962 35.0362 40.7715 32.7115 37.9038 32.7115V33.75ZM33.75 37.9038C33.75 35.6098 35.6097 33.75 37.9038 33.75V32.7115C35.0362 32.7115 32.7115 35.0362 32.7115 37.9038H33.75ZM37.9038 42.0577C35.6097 42.0577 33.75 40.1979 33.75 37.9038H32.7115C32.7115 40.7715 35.0362 43.0962 37.9038 43.0962V42.0577ZM38.1355 42.0514C38.0589 42.0555 37.9816 42.0577 37.9038 42.0577V43.0962C38.0006 43.0962 38.0968 43.0935 38.1924 43.0883L38.1355 42.0514ZM48.9229 52.5943L38.5312 42.2027L37.7969 42.937L48.1886 53.3287L48.9229 52.5943ZM4.15384 53.4808H48.5558V52.4423H4.15384V53.4808ZM0.519226 49.8462C0.519226 51.8535 2.1465 53.4808 4.15384 53.4808V52.4423C2.72003 52.4423 1.55769 51.28 1.55769 49.8462H0.519226ZM21.7664 40.1239C23.0879 38.8023 23.626 36.9939 23.3821 35.2776L22.3539 35.4237C22.5539 36.8306 22.1128 38.3087 21.032 39.3896L21.7664 40.1239ZM13.689 40.1239C15.9195 42.3544 19.5358 42.3544 21.7664 40.1239L21.032 39.3896C19.2071 41.2146 16.2482 41.2146 14.4233 39.3896L13.689 40.1239ZM13.689 32.0465C11.4585 34.277 11.4585 37.8934 13.689 40.1239L14.4233 39.3896C12.5983 37.5646 12.5983 34.6058 14.4233 32.7808L13.689 32.0465ZM18.5353 30.4308C16.8189 30.1868 15.0105 30.725 13.689 32.0465L14.4233 32.7808C15.5041 31.7 16.9823 31.2589 18.3892 31.4588L18.5353 30.4308ZM30.5777 18.0951L18.0951 30.5777L18.8294 31.312L31.312 18.8294L30.5777 18.0951ZM32.0466 13.689C30.7251 15.0105 30.1868 16.8189 30.4308 18.5353L31.4589 18.3892C31.2589 16.9823 31.7001 15.5041 32.7809 14.4233L32.0466 13.689ZM40.1239 13.689C37.8934 11.4585 34.2771 11.4585 32.0466 13.689L32.7809 14.4233C34.6058 12.5983 37.5647 12.5983 39.3896 14.4233L40.1239 13.689ZM40.1239 21.7663C42.3544 19.5358 42.3544 15.9194 40.1239 13.689L39.3896 14.4233C41.2146 16.2482 41.2146 19.2071 39.3896 21.032L40.1239 21.7663ZM35.2776 23.3821C36.9939 23.626 38.8023 23.0878 40.1239 21.7663L39.3896 21.032C38.3087 22.1128 36.8306 22.5539 35.4237 22.3539L35.2776 23.3821ZM23.2352 35.7178L35.7178 23.2352L34.9835 22.5009L22.5009 34.9835L23.2352 35.7178Z" fill="black"/>
</g>
<defs>
<clipPath id="clip0_8_35">
<rect width="54" height="54" fill="white"/>
</clipPath>
</defs>
</svg>
