<svg width="52" height="52" viewBox="0 0 52 52" fill="none" xmlns="http://www.w3.org/2000/svg">
<rect x="1" y="1" width="50" height="50" rx="5" fill="#FDFDFD"/>
<path fill-rule="evenodd" clip-rule="evenodd" d="M1 48V5.24264L11.0069 15.2495C11.0023 15.3324 11 15.4159 11 15.5C11 17.9853 13.0147 20 15.5 20C17.9853 20 20 17.9853 20 15.5C20 13.0147 17.9853 11 15.5 11C15.416 11 15.3324 11.0023 15.2495 11.0069L5.24264 1H48C49.6569 1 51 2.34315 51 4V46.7574L40.9931 36.7505C40.9977 36.6676 41 36.5841 41 36.5C41 34.0147 38.9853 32 36.5 32C34.0147 32 32 34.0147 32 36.5C32 38.9853 34.0147 41 36.5 41C36.584 41 36.6676 40.9977 36.7505 40.9931L46.7574 51H4C2.34315 51 1 49.6569 1 48ZM22.0211 34.0414C22.2348 35.5451 21.7633 37.1276 20.6066 38.2843C18.654 40.2369 15.4882 40.2369 13.5355 38.2843C11.5829 36.3316 11.5829 33.1658 13.5355 31.2132C14.6922 30.0565 16.2747 29.585 17.7784 29.7987L29.7987 17.7784C29.585 16.2746 30.0565 14.6922 31.2132 13.5355C33.1658 11.5829 36.3316 11.5829 38.2843 13.5355C40.2369 15.4881 40.2369 18.654 38.2843 20.6066C37.1276 21.7633 35.5451 22.2348 34.0414 22.0211L22.0211 34.0414Z" fill="#7272DA"/>
<path d="M1 5.24264L1.35355 4.88909L0.5 4.03553V5.24264H1ZM11.0069 15.2495L11.5061 15.2769L11.5184 15.0539L11.3604 14.896L11.0069 15.2495ZM15.2495 11.0069L14.8959 11.3604L15.0539 11.5183L15.2769 11.5061L15.2495 11.0069ZM5.24264 1V0.5H4.03553L4.88909 1.35355L5.24264 1ZM51 46.7574L50.6464 47.1109L51.5 47.9645V46.7574H51ZM40.9931 36.7505L40.4939 36.7231L40.4816 36.9461L40.6396 37.104L40.9931 36.7505ZM36.7505 40.9931L37.1041 40.6396L36.9461 40.4817L36.7231 40.4939L36.7505 40.9931ZM46.7574 51V51.5H47.9645L47.1109 50.6464L46.7574 51ZM20.6066 38.2843L20.253 37.9307L20.253 37.9307L20.6066 38.2843ZM22.0211 34.0414L21.6675 33.6878L21.4909 33.8644L21.526 34.1117L22.0211 34.0414ZM13.5355 31.2132L13.8891 31.5667L13.8891 31.5667L13.5355 31.2132ZM17.7784 29.7987L17.7081 30.2937L17.9554 30.3289L18.132 30.1523L17.7784 29.7987ZM29.7987 17.7784L30.1523 18.132L30.3289 17.9554L30.2938 17.7081L29.7987 17.7784ZM31.2132 13.5355L31.5668 13.8891L31.5668 13.8891L31.2132 13.5355ZM34.0414 22.0211L34.1117 21.526L33.8644 21.4909L33.6878 21.6675L34.0414 22.0211ZM0.5 5.24264V48H1.5V5.24264H0.5ZM11.3604 14.896L1.35355 4.88909L0.646447 5.59619L10.6533 15.6031L11.3604 14.896ZM11.5 15.5C11.5 15.4251 11.5021 15.3507 11.5061 15.2769L10.5076 15.2221C10.5026 15.3142 10.5 15.4068 10.5 15.5H11.5ZM15.5 19.5C13.2909 19.5 11.5 17.7091 11.5 15.5H10.5C10.5 18.2614 12.7386 20.5 15.5 20.5V19.5ZM19.5 15.5C19.5 17.7091 17.7092 19.5 15.5 19.5V20.5C18.2615 20.5 20.5 18.2614 20.5 15.5H19.5ZM15.5 11.5C17.7092 11.5 19.5 13.2909 19.5 15.5H20.5C20.5 12.7386 18.2615 10.5 15.5 10.5V11.5ZM15.2769 11.5061C15.3507 11.5021 15.4251 11.5 15.5 11.5V10.5C15.4068 10.5 15.3142 10.5026 15.2221 10.5076L15.2769 11.5061ZM4.88909 1.35355L14.8959 11.3604L15.6031 10.6533L5.59619 0.646447L4.88909 1.35355ZM48 0.5H5.24264V1.5H48V0.5ZM51.5 4C51.5 2.067 49.933 0.5 48 0.5V1.5C49.3807 1.5 50.5 2.61929 50.5 4H51.5ZM51.5 46.7574V4H50.5V46.7574H51.5ZM40.6396 37.104L50.6464 47.1109L51.3536 46.4038L41.3467 36.3969L40.6396 37.104ZM40.5 36.5C40.5 36.5749 40.4979 36.6493 40.4939 36.7231L41.4924 36.7779C41.4974 36.6858 41.5 36.5932 41.5 36.5H40.5ZM36.5 32.5C38.7091 32.5 40.5 34.2909 40.5 36.5H41.5C41.5 33.7386 39.2614 31.5 36.5 31.5V32.5ZM32.5 36.5C32.5 34.2909 34.2908 32.5 36.5 32.5V31.5C33.7386 31.5 31.5 33.7386 31.5 36.5H32.5ZM36.5 40.5C34.2908 40.5 32.5 38.7091 32.5 36.5H31.5C31.5 39.2614 33.7386 41.5 36.5 41.5V40.5ZM36.7231 40.4939C36.6493 40.4979 36.5749 40.5 36.5 40.5V41.5C36.5932 41.5 36.6858 41.4974 36.7779 41.4924L36.7231 40.4939ZM47.1109 50.6464L37.1041 40.6396L36.397 41.3467L46.4038 51.3536L47.1109 50.6464ZM4 51.5H46.7574V50.5H4V51.5ZM0.5 48C0.5 49.933 2.067 51.5 4 51.5V50.5C2.61929 50.5 1.5 49.3807 1.5 48H0.5ZM20.9602 38.6378C22.2328 37.3652 22.751 35.6238 22.5161 33.971L21.526 34.1117C21.7186 35.4665 21.2938 36.8899 20.253 37.9307L20.9602 38.6378ZM13.182 38.6378C15.3299 40.7857 18.8123 40.7857 20.9602 38.6378L20.253 37.9307C18.4957 39.6881 15.6464 39.6881 13.8891 37.9307L13.182 38.6378ZM13.182 30.8596C11.0341 33.0075 11.0341 36.4899 13.182 38.6378L13.8891 37.9307C12.1317 36.1733 12.1317 33.3241 13.8891 31.5667L13.182 30.8596ZM17.8488 29.3037C16.196 29.0688 14.4546 29.587 13.182 30.8596L13.8891 31.5667C14.9299 30.5259 16.3533 30.1012 17.7081 30.2937L17.8488 29.3037ZM29.4452 17.4249L17.4249 29.4452L18.132 30.1523L30.1523 18.132L29.4452 17.4249ZM30.8597 13.182C29.5871 14.4546 29.0688 16.196 29.3037 17.8488L30.2938 17.7081C30.1012 16.3533 30.526 14.9299 31.5668 13.8891L30.8597 13.182ZM38.6378 13.182C36.4899 11.0341 33.0075 11.0341 30.8596 13.182L31.5668 13.8891C33.3241 12.1317 36.1734 12.1317 37.9307 13.8891L38.6378 13.182ZM38.6378 20.9601C40.7857 18.8123 40.7857 15.3298 38.6378 13.182L37.9307 13.8891C39.6881 15.6464 39.6881 18.4957 37.9307 20.253L38.6378 20.9601ZM33.971 22.5161C35.6238 22.751 37.3652 22.2327 38.6378 20.9601L37.9307 20.253C36.8899 21.2938 35.4665 21.7186 34.1117 21.526L33.971 22.5161ZM22.3746 34.3949L34.3949 22.3746L33.6878 21.6675L21.6675 33.6878L22.3746 34.3949Z" fill="black"/>
</svg>
